<?xml version="1.0" encoding="UTF-8"?>
<svg xmlns="http://www.w3.org/2000/svg" xmlns:xlink="http://www.w3.org/1999/xlink" width="24pt" height="23pt" viewBox="0 0 24 23" version="1.1">
<defs>
<clipPath id="clip1">
  <path d="M 6.863281 4.464844 L 17.125 4.464844 L 17.125 18.546875 L 6.863281 18.546875 Z M 6.863281 4.464844 "/>
</clipPath>
<clipPath id="clip2">
  <path d="M 1.628906 1.621094 L 22.210938 1.621094 L 22.210938 21.476562 L 1.628906 21.476562 Z M 1.628906 1.621094 "/>
</clipPath>
<clipPath id="clip3">
  <path d="M 26.125 7.953125 L 15.695312 25.058594 L -2.132812 15.054688 L 8.292969 -2.050781 Z M 26.125 7.953125 "/>
</clipPath>
<clipPath id="clip4">
  <path d="M 15.695312 25.0625 L 26.125 7.957031 L 8.292969 -2.046875 L -2.136719 15.058594 Z M 15.695312 25.0625 "/>
</clipPath>
<clipPath id="clip5">
  <path d="M 17.382812 4.375 L 22.953125 4.375 L 22.953125 8.097656 L 17.382812 8.097656 Z M 17.382812 4.375 "/>
</clipPath>
<clipPath id="clip6">
  <path d="M 26.125 7.953125 L 15.695312 25.058594 L -2.132812 15.054688 L 8.292969 -2.050781 Z M 26.125 7.953125 "/>
</clipPath>
<clipPath id="clip7">
  <path d="M 15.695312 25.0625 L 26.125 7.957031 L 8.292969 -2.046875 L -2.136719 15.058594 Z M 15.695312 25.0625 "/>
</clipPath>
</defs>
<g id="surface1">
<g clip-path="url(#clip1)" clip-rule="nonzero">
<path style=" stroke:none;fill-rule:nonzero;fill:rgb(0%,0%,0%);fill-opacity:1;" d="M 12.28125 -2.082031 C 4.316406 -2.082031 -2.171875 4.140625 -2.171875 11.78125 C -2.171875 19.421875 4.316406 25.648438 12.28125 25.648438 C 20.246094 25.648438 26.738281 19.421875 26.738281 11.78125 C 26.738281 4.140625 20.246094 -2.082031 12.28125 -2.082031 Z M 12.28125 23.222656 C 5.707031 23.222656 0.355469 18.089844 0.355469 11.78125 C 0.355469 5.476562 5.707031 0.34375 12.28125 0.34375 C 18.855469 0.34375 24.207031 5.476562 24.207031 11.78125 C 24.207031 18.089844 18.855469 23.222656 12.28125 23.222656 Z M 12.28125 23.222656 "/>
</g>
<path style=" stroke:none;fill-rule:nonzero;fill:rgb(0%,0%,0%);fill-opacity:1;" d="M 12.871094 10.40625 L 12.871094 7.496094 C 13.378906 7.699219 13.671875 8.101562 13.800781 8.667969 L 15.738281 8.425781 C 15.613281 7.699219 15.273438 7.09375 14.8125 6.648438 C 14.347656 6.203125 13.671875 5.921875 12.871094 5.839844 L 12.871094 5.113281 L 11.734375 5.113281 L 11.734375 5.839844 C 10.847656 5.921875 10.132812 6.242188 9.628906 6.808594 C 9.078125 7.375 8.828125 8.023438 8.828125 8.832031 C 8.828125 9.640625 9.078125 10.328125 9.542969 10.851562 C 10.007812 11.378906 10.765625 11.824219 11.777344 12.105469 L 11.777344 15.21875 C 11.480469 15.097656 11.230469 14.894531 11.019531 14.613281 C 10.808594 14.328125 10.640625 13.964844 10.554688 13.601562 L 8.488281 13.84375 C 8.65625 14.8125 8.996094 15.582031 9.542969 16.109375 C 10.089844 16.632812 10.808594 16.957031 11.691406 17.078125 L 11.691406 18.410156 L 12.832031 18.410156 L 12.832031 17.039062 C 13.839844 16.917969 14.601562 16.511719 15.191406 15.90625 C 15.78125 15.300781 16.03125 14.53125 16.03125 13.640625 C 16.03125 12.832031 15.820312 12.1875 15.359375 11.660156 C 14.894531 11.136719 14.09375 10.730469 12.871094 10.40625 Z M 11.734375 10.085938 C 11.398438 9.964844 11.144531 9.761719 10.976562 9.558594 C 10.808594 9.316406 10.722656 9.074219 10.722656 8.832031 C 10.722656 8.546875 10.808594 8.265625 10.976562 8.0625 C 11.144531 7.859375 11.398438 7.660156 11.691406 7.578125 Z M 13.800781 14.855469 C 13.546875 15.136719 13.25 15.300781 12.871094 15.378906 L 12.871094 12.511719 C 13.335938 12.632812 13.671875 12.832031 13.882812 13.074219 C 14.09375 13.316406 14.179688 13.601562 14.179688 13.925781 C 14.179688 14.289062 14.050781 14.613281 13.800781 14.855469 Z M 13.800781 14.855469 "/>
<g clip-path="url(#clip2)" clip-rule="nonzero">
<g clip-path="url(#clip3)" clip-rule="nonzero">
<g clip-path="url(#clip4)" clip-rule="nonzero">
<path style=" stroke:none;fill-rule:nonzero;fill:rgb(0%,0%,0%);fill-opacity:1;" d="M 3.058594 6.539062 C 2.972656 6.679688 2.890625 6.824219 2.8125 6.964844 C 2.734375 7.109375 2.660156 7.257812 2.589844 7.402344 C 2.519531 7.550781 2.453125 7.699219 2.386719 7.851562 C 2.324219 8 2.265625 8.152344 2.210938 8.304688 C 2.15625 8.457031 2.105469 8.613281 2.058594 8.769531 C 2.011719 8.925781 1.96875 9.082031 1.925781 9.238281 C 1.886719 9.398438 1.851562 9.554688 1.820312 9.714844 C 1.789062 9.875 1.761719 10.035156 1.742188 10.195312 C 1.71875 10.355469 1.699219 10.515625 1.683594 10.679688 C 1.667969 10.839844 1.660156 11 1.652344 11.164062 C 1.644531 11.324219 1.644531 11.488281 1.644531 11.648438 C 1.648438 11.8125 1.652344 11.972656 1.664062 12.136719 C 1.671875 12.296875 1.6875 12.457031 1.707031 12.621094 C 1.722656 12.78125 1.746094 12.941406 1.773438 13.101562 C 1.800781 13.261719 1.832031 13.421875 1.863281 13.582031 C 1.898438 13.738281 1.9375 13.898438 1.980469 14.054688 C 2.023438 14.210938 2.070312 14.367188 2.121094 14.519531 C 2.171875 14.675781 2.226562 14.828125 2.285156 14.980469 C 2.34375 15.132812 2.40625 15.285156 2.472656 15.433594 C 2.539062 15.582031 2.609375 15.730469 2.683594 15.875 C 2.757812 16.019531 2.835938 16.164062 2.917969 16.308594 C 3 16.449219 3.082031 16.589844 3.171875 16.726562 C 3.261719 16.867188 3.351562 17 3.445312 17.136719 C 3.542969 17.269531 3.640625 17.402344 3.742188 17.53125 C 3.847656 17.660156 3.953125 17.785156 4.058594 17.910156 C 4.167969 18.035156 4.28125 18.15625 4.394531 18.273438 C 4.511719 18.394531 4.628906 18.511719 4.75 18.625 C 4.871094 18.738281 4.992188 18.847656 5.121094 18.957031 C 5.246094 19.0625 5.375 19.167969 5.507812 19.269531 C 5.636719 19.371094 5.773438 19.46875 5.910156 19.5625 C 6.046875 19.660156 6.1875 19.75 6.328125 19.839844 C 6.46875 19.929688 6.613281 20.011719 6.757812 20.09375 C 6.90625 20.175781 7.050781 20.253906 7.203125 20.332031 C 7.351562 20.40625 7.503906 20.476562 7.65625 20.542969 C 7.8125 20.613281 7.964844 20.675781 8.125 20.738281 C 8.28125 20.796875 8.4375 20.855469 8.597656 20.90625 C 8.757812 20.960938 8.917969 21.007812 9.082031 21.054688 C 9.242188 21.101562 9.40625 21.140625 9.570312 21.179688 C 9.734375 21.214844 9.902344 21.25 10.066406 21.28125 C 10.234375 21.308594 10.398438 21.335938 10.566406 21.359375 C 10.734375 21.378906 10.902344 21.398438 11.070312 21.414062 C 11.238281 21.425781 11.40625 21.4375 11.578125 21.441406 C 11.746094 21.449219 11.914062 21.453125 12.082031 21.449219 C 12.253906 21.449219 12.421875 21.441406 12.589844 21.433594 C 12.757812 21.421875 12.925781 21.410156 13.09375 21.390625 C 13.261719 21.375 13.429688 21.351562 13.597656 21.328125 C 13.765625 21.300781 13.929688 21.273438 14.097656 21.238281 C 14.261719 21.207031 14.425781 21.167969 14.589844 21.128906 C 14.753906 21.085938 14.914062 21.042969 15.078125 20.992188 C 15.238281 20.945312 15.398438 20.890625 15.554688 20.835938 C 15.714844 20.777344 15.871094 20.71875 16.027344 20.65625 C 16.183594 20.589844 16.335938 20.523438 16.488281 20.453125 C 16.640625 20.382812 16.789062 20.308594 16.9375 20.230469 C 17.085938 20.152344 17.234375 20.070312 17.378906 19.984375 C 17.519531 19.902344 17.664062 19.8125 17.804688 19.722656 C 17.941406 19.628906 18.078125 19.535156 18.214844 19.4375 C 18.347656 19.339844 18.480469 19.238281 18.609375 19.132812 C 18.738281 19.03125 18.867188 18.921875 18.992188 18.8125 C 19.113281 18.703125 19.234375 18.589844 19.355469 18.472656 C 19.472656 18.355469 19.585938 18.238281 19.699219 18.117188 C 19.8125 17.996094 19.921875 17.871094 20.027344 17.746094 C 20.132812 17.617188 20.234375 17.488281 20.335938 17.359375 C 20.433594 17.226562 20.527344 17.09375 20.621094 16.957031 C 20.714844 16.824219 20.804688 16.683594 20.886719 16.542969 C 22.964844 13.140625 22.558594 9.144531 19.71875 4.988281 C 19.703125 4.96875 19.683594 4.945312 19.664062 4.925781 C 19.644531 4.90625 19.621094 4.890625 19.597656 4.875 C 19.574219 4.859375 19.550781 4.847656 19.523438 4.835938 C 19.5 4.824219 19.472656 4.816406 19.445312 4.8125 C 19.417969 4.804688 19.386719 4.804688 19.359375 4.804688 C 19.332031 4.804688 19.304688 4.804688 19.273438 4.8125 C 19.246094 4.816406 19.21875 4.824219 19.195312 4.832031 C 19.167969 4.84375 19.144531 4.855469 19.121094 4.871094 C 19.09375 4.886719 19.074219 4.902344 19.054688 4.921875 C 19.03125 4.941406 19.015625 4.960938 19 4.984375 C 18.984375 5.007812 18.96875 5.03125 18.957031 5.054688 C 18.949219 5.082031 18.9375 5.109375 18.933594 5.132812 C 18.929688 5.160156 18.925781 5.1875 18.925781 5.214844 C 18.925781 5.242188 18.925781 5.269531 18.933594 5.296875 C 18.9375 5.324219 18.945312 5.347656 18.957031 5.375 C 18.96875 5.398438 18.980469 5.421875 18.996094 5.445312 C 20.84375 8.144531 22.542969 12.191406 20.144531 16.128906 C 20.066406 16.257812 19.984375 16.382812 19.902344 16.507812 C 19.816406 16.632812 19.726562 16.753906 19.636719 16.875 C 19.546875 16.996094 19.453125 17.113281 19.355469 17.230469 C 19.257812 17.34375 19.160156 17.457031 19.054688 17.570312 C 18.953125 17.679688 18.847656 17.789062 18.738281 17.894531 C 18.628906 18 18.519531 18.105469 18.40625 18.207031 C 18.292969 18.308594 18.175781 18.40625 18.058594 18.5 C 17.9375 18.597656 17.816406 18.6875 17.695312 18.777344 C 17.570312 18.867188 17.445312 18.957031 17.316406 19.039062 C 17.1875 19.125 17.058594 19.203125 16.925781 19.28125 C 16.796875 19.359375 16.660156 19.433594 16.523438 19.507812 C 16.390625 19.578125 16.25 19.644531 16.113281 19.710938 C 15.972656 19.777344 15.832031 19.835938 15.691406 19.894531 C 15.546875 19.953125 15.402344 20.007812 15.257812 20.0625 C 15.113281 20.113281 14.964844 20.160156 14.816406 20.203125 C 14.671875 20.25 14.523438 20.289062 14.371094 20.328125 C 14.222656 20.367188 14.070312 20.398438 13.917969 20.429688 C 13.769531 20.460938 13.617188 20.488281 13.460938 20.511719 C 13.308594 20.535156 13.15625 20.554688 13 20.570312 C 12.847656 20.585938 12.695312 20.601562 12.539062 20.609375 C 12.382812 20.617188 12.230469 20.621094 12.074219 20.625 C 11.917969 20.625 11.765625 20.625 11.609375 20.617188 C 11.453125 20.613281 11.300781 20.601562 11.144531 20.589844 C 10.992188 20.578125 10.835938 20.5625 10.683594 20.539062 C 10.53125 20.519531 10.378906 20.496094 10.226562 20.46875 C 10.074219 20.441406 9.921875 20.410156 9.769531 20.375 C 9.621094 20.339844 9.472656 20.304688 9.320312 20.261719 C 9.171875 20.21875 9.027344 20.175781 8.878906 20.125 C 8.734375 20.078125 8.585938 20.027344 8.445312 19.96875 C 8.300781 19.914062 8.15625 19.855469 8.015625 19.792969 C 7.875 19.730469 7.738281 19.667969 7.601562 19.597656 C 7.460938 19.53125 7.328125 19.457031 7.191406 19.382812 C 7.058594 19.308594 6.925781 19.230469 6.796875 19.148438 C 6.667969 19.066406 6.539062 18.984375 6.414062 18.894531 C 6.289062 18.808594 6.167969 18.71875 6.046875 18.625 C 5.925781 18.53125 5.804688 18.4375 5.691406 18.335938 C 5.574219 18.238281 5.460938 18.136719 5.351562 18.035156 C 5.238281 17.929688 5.132812 17.824219 5.027344 17.714844 C 4.921875 17.605469 4.820312 17.492188 4.71875 17.378906 C 4.621094 17.265625 4.523438 17.148438 4.429688 17.03125 C 4.335938 16.914062 4.246094 16.792969 4.15625 16.667969 C 4.070312 16.546875 3.984375 16.421875 3.90625 16.296875 C 3.824219 16.167969 3.746094 16.039062 3.671875 15.910156 C 3.597656 15.78125 3.527344 15.648438 3.457031 15.515625 C 3.390625 15.378906 3.324219 15.246094 3.265625 15.109375 C 3.203125 14.972656 3.148438 14.832031 3.09375 14.695312 C 3.039062 14.554688 2.988281 14.414062 2.941406 14.273438 C 2.894531 14.128906 2.851562 13.988281 2.8125 13.84375 C 2.773438 13.699219 2.738281 13.554688 2.707031 13.410156 C 2.675781 13.265625 2.648438 13.117188 2.625 12.972656 C 2.597656 12.824219 2.578125 12.679688 2.5625 12.53125 C 2.542969 12.382812 2.53125 12.234375 2.523438 12.085938 C 2.511719 11.9375 2.507812 11.789062 2.503906 11.640625 C 2.503906 11.492188 2.507812 11.34375 2.511719 11.195312 C 2.519531 11.046875 2.527344 10.898438 2.542969 10.75 C 2.554688 10.601562 2.570312 10.453125 2.59375 10.308594 C 2.613281 10.160156 2.640625 10.011719 2.667969 9.867188 C 2.695312 9.722656 2.730469 9.574219 2.765625 9.429688 C 2.800781 9.285156 2.839844 9.144531 2.882812 9 C 2.925781 8.855469 2.972656 8.714844 3.023438 8.574219 C 3.074219 8.433594 3.128906 8.296875 3.1875 8.15625 C 3.246094 8.019531 3.304688 7.882812 3.371094 7.75 C 3.4375 7.613281 3.503906 7.480469 3.574219 7.347656 C 3.648438 7.214844 3.722656 7.085938 3.800781 6.957031 C 3.878906 6.828125 3.960938 6.703125 4.042969 6.578125 C 4.128906 6.453125 4.21875 6.332031 4.308594 6.210938 C 4.398438 6.089844 4.492188 5.972656 4.589844 5.855469 C 4.6875 5.742188 4.785156 5.628906 4.890625 5.515625 C 4.992188 5.40625 5.097656 5.296875 5.207031 5.191406 C 5.316406 5.085938 5.425781 4.980469 5.539062 4.878906 C 5.652344 4.777344 5.769531 4.679688 5.886719 4.585938 C 6.007812 4.488281 6.128906 4.398438 6.25 4.304688 C 6.375 4.21875 6.5 4.128906 6.628906 4.046875 C 6.757812 3.960938 6.886719 3.882812 7.019531 3.804688 C 7.152344 3.726562 7.285156 3.652344 7.421875 3.578125 C 7.554688 3.507812 7.695312 3.441406 7.832031 3.375 C 7.972656 3.308594 8.113281 3.25 8.253906 3.191406 C 8.398438 3.132812 8.542969 3.078125 8.6875 3.023438 C 8.832031 2.972656 8.980469 2.925781 9.128906 2.878906 C 9.273438 2.835938 9.421875 2.792969 9.574219 2.757812 C 9.722656 2.71875 9.875 2.683594 10.027344 2.65625 C 10.175781 2.625 10.328125 2.597656 10.484375 2.574219 C 10.636719 2.550781 10.789062 2.53125 10.945312 2.515625 C 11.097656 2.5 11.25 2.484375 11.40625 2.476562 C 11.5625 2.46875 11.714844 2.464844 11.871094 2.460938 C 12.027344 2.460938 12.179688 2.460938 12.335938 2.46875 C 12.492188 2.472656 12.644531 2.484375 12.800781 2.496094 C 12.953125 2.507812 13.109375 2.523438 13.261719 2.546875 C 13.414062 2.566406 13.566406 2.589844 13.71875 2.617188 C 13.871094 2.644531 14.023438 2.675781 14.175781 2.710938 C 14.324219 2.746094 14.476562 2.78125 14.625 2.824219 C 14.773438 2.867188 14.917969 2.910156 15.066406 2.960938 C 15.210938 3.007812 15.359375 3.058594 15.5 3.117188 C 15.644531 3.171875 15.789062 3.230469 15.929688 3.292969 C 16.070312 3.355469 16.207031 3.417969 16.34375 3.488281 C 16.484375 3.554688 16.617188 3.628906 16.753906 3.703125 C 16.777344 3.71875 16.800781 3.726562 16.828125 3.738281 C 16.855469 3.746094 16.882812 3.753906 16.910156 3.753906 C 16.9375 3.757812 16.96875 3.761719 16.996094 3.757812 C 17.023438 3.757812 17.050781 3.753906 17.078125 3.746094 C 17.105469 3.738281 17.132812 3.730469 17.15625 3.71875 C 17.183594 3.707031 17.207031 3.691406 17.230469 3.675781 C 17.253906 3.660156 17.273438 3.640625 17.292969 3.621094 C 17.308594 3.601562 17.328125 3.578125 17.339844 3.554688 C 17.355469 3.53125 17.367188 3.507812 17.375 3.480469 C 17.386719 3.457031 17.390625 3.429688 17.394531 3.402344 C 17.398438 3.375 17.402344 3.347656 17.398438 3.320312 C 17.398438 3.296875 17.394531 3.269531 17.386719 3.242188 C 17.378906 3.214844 17.367188 3.191406 17.355469 3.167969 C 17.34375 3.140625 17.328125 3.117188 17.3125 3.097656 C 17.296875 3.074219 17.277344 3.054688 17.253906 3.039062 C 17.234375 3.019531 17.210938 3.003906 17.1875 2.992188 C 17.039062 2.910156 16.894531 2.832031 16.742188 2.753906 C 16.59375 2.679688 16.441406 2.609375 16.289062 2.542969 C 16.132812 2.476562 15.980469 2.410156 15.820312 2.351562 C 15.664062 2.289062 15.507812 2.234375 15.347656 2.179688 C 15.1875 2.128906 15.027344 2.078125 14.863281 2.035156 C 14.703125 1.988281 14.539062 1.945312 14.375 1.910156 C 14.210938 1.871094 14.042969 1.839844 13.878906 1.808594 C 13.710938 1.777344 13.546875 1.753906 13.378906 1.730469 C 13.210938 1.707031 13.042969 1.691406 12.875 1.675781 C 12.707031 1.664062 12.539062 1.652344 12.367188 1.644531 C 12.199219 1.640625 12.03125 1.636719 11.863281 1.640625 C 11.691406 1.640625 11.523438 1.648438 11.355469 1.65625 C 11.1875 1.667969 11.019531 1.679688 10.851562 1.699219 C 10.683594 1.714844 10.515625 1.738281 10.347656 1.761719 C 10.179688 1.789062 10.015625 1.816406 9.851562 1.851562 C 9.683594 1.882812 9.519531 1.921875 9.355469 1.960938 C 9.191406 2.003906 9.03125 2.046875 8.871094 2.097656 C 8.707031 2.144531 8.546875 2.199219 8.390625 2.253906 C 8.230469 2.3125 8.074219 2.371094 7.917969 2.433594 C 7.765625 2.5 7.609375 2.566406 7.457031 2.636719 C 7.304688 2.707031 7.15625 2.78125 7.007812 2.859375 C 6.859375 2.9375 6.714844 3.019531 6.570312 3.101562 C 6.425781 3.1875 6.285156 3.277344 6.144531 3.367188 C 6.003906 3.460938 5.867188 3.554688 5.734375 3.652344 C 5.597656 3.75 5.464844 3.851562 5.335938 3.953125 C 5.207031 4.058594 5.082031 4.164062 4.957031 4.277344 C 4.832031 4.386719 4.710938 4.5 4.59375 4.613281 C 4.472656 4.730469 4.359375 4.847656 4.246094 4.96875 C 4.132812 5.089844 4.027344 5.214844 3.917969 5.339844 C 3.8125 5.46875 3.710938 5.597656 3.613281 5.726562 C 3.511719 5.859375 3.417969 5.992188 3.324219 6.128906 C 3.230469 6.261719 3.144531 6.402344 3.058594 6.539062 Z M 3.058594 6.539062 "/>
</g>
</g>
</g>
<g clip-path="url(#clip5)" clip-rule="nonzero">
<g clip-path="url(#clip6)" clip-rule="nonzero">
<g clip-path="url(#clip7)" clip-rule="nonzero">
<path style=" stroke:none;fill-rule:nonzero;fill:rgb(0%,0%,0%);fill-opacity:1;" d="M 19.199219 4.597656 L 17.460938 7.449219 C 17.445312 7.472656 17.433594 7.496094 17.425781 7.523438 C 17.414062 7.546875 17.410156 7.574219 17.40625 7.601562 C 17.402344 7.628906 17.402344 7.652344 17.402344 7.679688 C 17.402344 7.707031 17.410156 7.734375 17.414062 7.761719 C 17.421875 7.789062 17.433594 7.8125 17.445312 7.835938 C 17.457031 7.859375 17.472656 7.882812 17.488281 7.90625 C 17.507812 7.925781 17.523438 7.949219 17.546875 7.964844 C 17.566406 7.984375 17.589844 8 17.613281 8.011719 C 17.640625 8.027344 17.664062 8.039062 17.691406 8.046875 C 17.71875 8.054688 17.746094 8.0625 17.773438 8.066406 C 17.800781 8.070312 17.828125 8.070312 17.859375 8.070312 C 17.886719 8.066406 17.914062 8.0625 17.941406 8.054688 C 17.96875 8.050781 17.996094 8.039062 18.019531 8.027344 C 18.046875 8.015625 18.070312 8 18.09375 7.984375 C 18.113281 7.96875 18.136719 7.949219 18.152344 7.929688 C 18.171875 7.910156 18.1875 7.886719 18.203125 7.863281 L 19.722656 5.371094 L 22.292969 6.8125 C 22.316406 6.824219 22.34375 6.835938 22.371094 6.84375 C 22.398438 6.855469 22.425781 6.859375 22.453125 6.863281 C 22.480469 6.867188 22.507812 6.867188 22.535156 6.867188 C 22.566406 6.867188 22.59375 6.863281 22.621094 6.855469 C 22.648438 6.847656 22.671875 6.839844 22.699219 6.828125 C 22.722656 6.816406 22.75 6.800781 22.769531 6.785156 C 22.792969 6.769531 22.8125 6.75 22.832031 6.730469 C 22.851562 6.710938 22.867188 6.6875 22.882812 6.664062 C 22.894531 6.640625 22.90625 6.617188 22.917969 6.589844 C 22.925781 6.566406 22.933594 6.539062 22.9375 6.511719 C 22.941406 6.484375 22.941406 6.457031 22.941406 6.429688 C 22.9375 6.402344 22.933594 6.378906 22.925781 6.351562 C 22.917969 6.324219 22.910156 6.300781 22.898438 6.273438 C 22.886719 6.25 22.871094 6.226562 22.851562 6.207031 C 22.835938 6.183594 22.816406 6.164062 22.796875 6.148438 C 22.773438 6.128906 22.753906 6.113281 22.726562 6.097656 L 19.789062 4.449219 C 19.761719 4.4375 19.738281 4.425781 19.710938 4.414062 C 19.683594 4.40625 19.65625 4.402344 19.628906 4.398438 C 19.601562 4.394531 19.574219 4.390625 19.542969 4.394531 C 19.515625 4.394531 19.488281 4.398438 19.460938 4.40625 C 19.433594 4.414062 19.40625 4.421875 19.382812 4.433594 C 19.355469 4.445312 19.332031 4.460938 19.308594 4.476562 C 19.289062 4.492188 19.265625 4.511719 19.246094 4.53125 C 19.230469 4.550781 19.210938 4.574219 19.199219 4.597656 Z M 19.199219 4.597656 "/>
</g>
</g>
</g>
</g>
</svg>
