<?xml version="1.0" encoding="UTF-8"?>
<svg xmlns="http://www.w3.org/2000/svg" xmlns:xlink="http://www.w3.org/1999/xlink" width="810pt" height="809.999993pt" viewBox="0 0 810 809.999993" version="1.2">
<defs>
<clipPath id="clip1">
  <path d="M 231.714844 157.160156 L 578.214844 157.160156 L 578.214844 652.910156 L 231.714844 652.910156 Z M 231.714844 157.160156 "/>
</clipPath>
<clipPath id="clip2">
  <path d="M 55 57 L 750 57 L 750 756 L 55 756 Z M 55 57 "/>
</clipPath>
<clipPath id="clip3">
  <path d="M 882.164062 280.003906 L 530.03125 882.089844 L -72.058594 529.960938 L 280.074219 -72.128906 Z M 882.164062 280.003906 "/>
</clipPath>
<clipPath id="clip4">
  <path d="M 529.988281 882.164062 L 882.121094 280.074219 L 280.035156 -72.058594 L -72.097656 530.03125 Z M 529.988281 882.164062 "/>
</clipPath>
<clipPath id="clip5">
  <path d="M 587 154 L 775 154 L 775 285 L 587 285 Z M 587 154 "/>
</clipPath>
<clipPath id="clip6">
  <path d="M 882.164062 280.003906 L 530.03125 882.089844 L -72.058594 529.960938 L 280.074219 -72.128906 Z M 882.164062 280.003906 "/>
</clipPath>
<clipPath id="clip7">
  <path d="M 529.988281 882.164062 L 882.121094 280.074219 L 280.035156 -72.058594 L -72.097656 530.03125 Z M 529.988281 882.164062 "/>
</clipPath>
</defs>
<g id="surface1">
<g clip-path="url(#clip1)" clip-rule="nonzero">
<path style=" stroke:none;fill-rule:nonzero;fill:rgb(0%,0%,0%);fill-opacity:1;" d="M 414.730469 -73.347656 C 145.789062 -73.347656 -73.347656 145.789062 -73.347656 414.730469 C -73.347656 683.671875 145.789062 902.8125 414.730469 902.8125 C 683.671875 902.8125 902.8125 683.671875 902.8125 414.730469 C 902.8125 145.789062 683.671875 -73.347656 414.730469 -73.347656 Z M 414.730469 817.433594 C 192.746094 817.433594 12.03125 636.714844 12.03125 414.730469 C 12.03125 192.746094 192.746094 12.03125 414.730469 12.03125 C 636.714844 12.03125 817.433594 192.746094 817.433594 414.730469 C 817.433594 636.714844 636.714844 817.433594 414.730469 817.433594 Z M 414.730469 817.433594 "/>
</g>
<path style=" stroke:none;fill-rule:nonzero;fill:rgb(0%,0%,0%);fill-opacity:1;" d="M 434.652344 366.351562 L 434.652344 263.894531 C 451.726562 271.011719 461.6875 285.242188 465.957031 305.164062 L 531.414062 296.625 C 527.144531 271.011719 515.761719 249.667969 500.109375 234.011719 C 484.457031 218.359375 461.6875 208.398438 434.652344 205.554688 L 434.652344 179.941406 L 396.234375 179.941406 L 396.234375 205.554688 C 366.351562 208.398438 342.160156 219.785156 325.082031 239.707031 C 306.585938 259.628906 298.046875 282.394531 298.046875 310.855469 C 298.046875 339.3125 306.585938 363.503906 322.238281 382.003906 C 337.890625 400.5 363.503906 416.152344 397.65625 426.113281 L 397.65625 535.683594 C 387.695312 531.414062 379.15625 524.300781 372.042969 514.339844 C 364.925781 504.378906 359.234375 491.570312 356.390625 478.765625 L 286.664062 487.304688 C 292.355469 521.453125 303.738281 548.492188 322.238281 566.988281 C 340.738281 585.488281 364.925781 596.871094 394.808594 601.140625 L 394.808594 648.097656 L 433.230469 648.097656 L 433.230469 599.71875 C 467.382812 595.449219 492.996094 581.21875 512.917969 559.875 C 532.839844 538.53125 541.375 511.492188 541.375 480.1875 C 541.375 451.726562 534.261719 428.960938 518.609375 410.460938 C 502.957031 391.964844 475.917969 377.734375 434.652344 366.351562 Z M 396.234375 354.964844 C 384.847656 350.699219 376.3125 343.582031 370.617188 336.46875 C 364.925781 327.929688 362.082031 319.390625 362.082031 310.855469 C 362.082031 300.894531 364.925781 290.933594 370.617188 283.816406 C 376.3125 276.703125 384.847656 269.585938 394.808594 266.742188 Z M 465.957031 522.878906 C 457.421875 532.839844 447.460938 538.53125 434.652344 541.375 L 434.652344 440.34375 C 450.304688 444.613281 461.6875 451.726562 468.804688 460.265625 C 475.917969 468.804688 478.765625 478.765625 478.765625 490.148438 C 478.765625 502.957031 474.496094 514.339844 465.957031 522.878906 Z M 465.957031 522.878906 "/>
<g clip-path="url(#clip2)" clip-rule="nonzero">
<g clip-path="url(#clip3)" clip-rule="nonzero">
<g clip-path="url(#clip4)" clip-rule="nonzero">
<path style=" stroke:none;fill-rule:nonzero;fill:rgb(0%,0%,0%);fill-opacity:1;" d="M 103.234375 230.242188 C 100.351562 235.167969 97.59375 240.160156 94.957031 245.222656 C 92.320312 250.285156 89.8125 255.410156 87.425781 260.597656 C 85.042969 265.78125 82.785156 271.023438 80.65625 276.320312 C 78.53125 281.613281 76.535156 286.960938 74.667969 292.355469 C 72.804688 297.75 71.074219 303.1875 69.476562 308.664062 C 67.878906 314.144531 66.414062 319.660156 65.085938 325.210938 C 63.761719 330.761719 62.570312 336.34375 61.515625 341.953125 C 60.464844 347.5625 59.546875 353.191406 58.773438 358.847656 C 57.996094 364.5 57.359375 370.171875 56.859375 375.859375 C 56.359375 381.542969 56.003906 387.238281 55.785156 392.941406 C 55.566406 398.644531 55.488281 404.351562 55.546875 410.058594 C 55.609375 415.765625 55.8125 421.46875 56.152344 427.164062 C 56.492188 432.863281 56.972656 438.546875 57.59375 444.222656 C 58.214844 449.894531 58.972656 455.550781 59.871094 461.1875 C 60.769531 466.824219 61.808594 472.433594 62.980469 478.019531 C 64.152344 483.605469 65.464844 489.15625 66.910156 494.679688 C 68.355469 500.199219 69.9375 505.683594 71.652344 511.125 C 73.367188 516.570312 75.214844 521.96875 77.195312 527.320312 C 79.175781 532.675781 81.289062 537.976562 83.527344 543.226562 C 85.769531 548.472656 88.136719 553.664062 90.632812 558.796875 C 93.128906 563.929688 95.75 569 98.492188 574.003906 C 101.238281 579.007812 104.101562 583.941406 107.089844 588.808594 C 110.078125 593.671875 113.179688 598.457031 116.402344 603.167969 C 119.625 607.878906 122.960938 612.511719 126.410156 617.058594 C 129.859375 621.605469 133.417969 626.066406 137.085938 630.4375 C 140.753906 634.8125 144.527344 639.089844 148.40625 643.277344 C 152.28125 647.464844 156.261719 651.554688 160.339844 655.546875 C 164.417969 659.539062 168.59375 663.429688 172.863281 667.21875 C 177.132812 671.003906 181.496094 674.683594 185.945312 678.257812 C 190.394531 681.832031 194.929688 685.292969 199.550781 688.644531 C 204.171875 691.992188 208.871094 695.230469 213.652344 698.347656 C 218.429688 701.46875 223.285156 704.46875 228.210938 707.351562 C 233.136719 710.230469 238.132812 712.992188 243.195312 715.628906 C 248.257812 718.261719 253.382812 720.773438 258.566406 723.160156 C 263.753906 725.542969 268.992188 727.800781 274.289062 729.925781 C 279.585938 732.054688 284.929688 734.050781 290.324219 735.914062 C 295.71875 737.78125 301.15625 739.511719 306.636719 741.109375 C 312.113281 742.707031 317.628906 744.167969 323.179688 745.496094 C 328.730469 746.824219 334.3125 748.015625 339.921875 749.066406 C 345.53125 750.121094 351.164062 751.035156 356.816406 751.8125 C 362.472656 752.589844 368.144531 753.226562 373.828125 753.726562 C 379.515625 754.222656 385.207031 754.582031 390.910156 754.800781 C 396.617188 755.019531 402.320312 755.097656 408.027344 755.035156 C 413.734375 754.976562 419.4375 754.773438 425.136719 754.433594 C 430.832031 754.089844 436.519531 753.609375 442.191406 752.988281 C 447.863281 752.371094 453.519531 751.609375 459.15625 750.710938 C 464.792969 749.8125 470.402344 748.777344 475.988281 747.605469 C 481.574219 746.429688 487.128906 745.121094 492.648438 743.675781 C 498.171875 742.226562 503.652344 740.648438 509.097656 738.933594 C 514.542969 737.214844 519.9375 735.367188 525.292969 733.386719 C 530.644531 731.40625 535.945312 729.296875 541.195312 727.054688 C 546.445312 724.816406 551.636719 722.445312 556.769531 719.953125 C 561.902344 717.457031 566.972656 714.835938 571.976562 712.089844 C 576.980469 709.347656 581.914062 706.480469 586.777344 703.496094 C 591.640625 700.507812 596.429688 697.402344 601.140625 694.179688 C 605.851562 690.960938 610.480469 687.625 615.027344 684.175781 C 619.574219 680.726562 624.035156 677.167969 628.410156 673.5 C 632.78125 669.832031 637.0625 666.058594 641.25 662.179688 C 645.4375 658.300781 649.527344 654.324219 653.519531 650.246094 C 657.511719 646.164062 661.402344 641.992188 665.1875 637.722656 C 668.976562 633.449219 672.65625 629.089844 676.230469 624.640625 C 679.800781 620.1875 683.261719 615.652344 686.613281 611.03125 C 689.964844 606.410156 693.199219 601.710938 696.320312 596.933594 C 699.4375 592.152344 702.441406 587.300781 705.320312 582.375 C 775.382812 462.582031 761.691406 321.925781 665.804688 175.648438 C 665.277344 174.847656 664.679688 174.105469 664.003906 173.421875 C 663.332031 172.738281 662.601562 172.128906 661.808594 171.589844 C 661.015625 171.050781 660.175781 170.597656 659.292969 170.222656 C 658.410156 169.851562 657.5 169.566406 656.5625 169.371094 C 655.621094 169.179688 654.671875 169.078125 653.714844 169.074219 C 652.757812 169.066406 651.804688 169.152344 650.863281 169.332031 C 649.921875 169.511719 649.007812 169.785156 648.121094 170.144531 C 647.234375 170.507812 646.390625 170.949219 645.589844 171.476562 C 644.789062 172.003906 644.046875 172.605469 643.363281 173.277344 C 642.683594 173.953125 642.070312 174.683594 641.535156 175.476562 C 640.996094 176.273438 640.542969 177.109375 640.167969 177.992188 C 639.796875 178.875 639.515625 179.789062 639.320312 180.726562 C 639.128906 181.664062 639.03125 182.613281 639.023438 183.574219 C 639.019531 184.53125 639.105469 185.480469 639.285156 186.421875 C 639.46875 187.363281 639.738281 188.277344 640.101562 189.164062 C 640.464844 190.054688 640.90625 190.898438 641.4375 191.695312 C 703.867188 286.722656 761.238281 429.195312 680.234375 567.699219 C 677.59375 572.21875 674.84375 576.664062 671.984375 581.046875 C 669.121094 585.429688 666.15625 589.738281 663.085938 593.972656 C 660.015625 598.207031 656.839844 602.367188 653.566406 606.445312 C 650.289062 610.523438 646.917969 614.523438 643.445312 618.4375 C 639.972656 622.351562 636.40625 626.175781 632.75 629.917969 C 629.089844 633.65625 625.339844 637.300781 621.5 640.855469 C 617.664062 644.414062 613.738281 647.871094 609.730469 651.234375 C 605.722656 654.597656 601.632812 657.859375 597.464844 661.019531 C 593.296875 664.179688 589.054688 667.238281 584.734375 670.191406 C 580.414062 673.144531 576.027344 675.992188 571.570312 678.730469 C 567.109375 681.464844 562.585938 684.09375 558 686.609375 C 553.414062 689.125 548.765625 691.527344 544.0625 693.816406 C 539.355469 696.101562 534.597656 698.273438 529.785156 700.328125 C 524.972656 702.382812 520.113281 704.316406 515.207031 706.132812 C 510.300781 707.945312 505.351562 709.640625 500.363281 711.214844 C 495.371094 712.785156 490.347656 714.234375 485.285156 715.5625 C 480.222656 716.886719 475.132812 718.085938 470.015625 719.164062 C 464.894531 720.238281 459.75 721.1875 454.582031 722.011719 C 449.417969 722.835938 444.234375 723.53125 439.03125 724.101562 C 433.832031 724.667969 428.621094 725.109375 423.398438 725.421875 C 418.175781 725.734375 412.945312 725.917969 407.714844 725.976562 C 402.484375 726.03125 397.253906 725.960938 392.027344 725.757812 C 386.796875 725.558594 381.578125 725.230469 376.367188 724.773438 C 371.152344 724.316406 365.957031 723.734375 360.773438 723.019531 C 355.589844 722.308594 350.425781 721.46875 345.285156 720.503906 C 340.144531 719.539062 335.027344 718.449219 329.9375 717.230469 C 324.851562 716.015625 319.796875 714.675781 314.773438 713.210938 C 309.75 711.746094 304.765625 710.15625 299.820312 708.449219 C 294.875 706.738281 289.976562 704.910156 285.121094 702.957031 C 280.265625 701.007812 275.460938 698.941406 270.710938 696.753906 C 265.957031 694.566406 261.257812 692.265625 256.617188 689.851562 C 251.976562 687.433594 247.398438 684.90625 242.882812 682.261719 C 238.367188 679.621094 233.917969 676.871094 229.539062 674.011719 C 225.15625 671.152344 220.847656 668.1875 216.613281 665.117188 C 212.375 662.042969 208.21875 658.871094 204.140625 655.59375 C 200.058594 652.320312 196.0625 648.945312 192.148438 645.476562 C 188.234375 642.003906 184.40625 638.4375 180.667969 634.777344 C 176.929688 631.117188 173.28125 627.371094 169.726562 623.53125 C 166.171875 619.691406 162.714844 615.769531 159.351562 611.761719 C 155.988281 607.75 152.726562 603.664062 149.566406 599.496094 C 146.402344 595.328125 143.347656 591.082031 140.390625 586.765625 C 137.4375 582.445312 134.59375 578.058594 131.855469 573.597656 C 129.117188 569.140625 126.492188 564.617188 123.976562 560.03125 C 121.460938 555.441406 119.058594 550.796875 116.769531 546.089844 C 114.484375 541.386719 112.3125 536.628906 110.257812 531.816406 C 108.203125 527.003906 106.269531 522.144531 104.453125 517.238281 C 102.636719 512.332031 100.945312 507.382812 99.371094 502.390625 C 97.800781 497.402344 96.351562 492.375 95.023438 487.316406 C 93.699219 482.253906 92.496094 477.164062 91.421875 472.042969 C 90.347656 466.921875 89.394531 461.78125 88.574219 456.613281 C 87.75 451.445312 87.054688 446.261719 86.484375 441.0625 C 85.917969 435.859375 85.476562 430.648438 85.164062 425.425781 C 84.847656 420.203125 84.664062 414.976562 84.609375 409.746094 C 84.550781 404.511719 84.625 399.285156 84.824219 394.054688 C 85.027344 388.828125 85.355469 383.605469 85.8125 378.394531 C 86.269531 373.183594 86.851562 367.984375 87.5625 362.800781 C 88.277344 357.621094 89.113281 352.457031 90.082031 347.3125 C 91.046875 342.171875 92.136719 337.058594 93.351562 331.96875 C 94.570312 326.878906 95.910156 321.824219 97.375 316.800781 C 98.839844 311.777344 100.425781 306.796875 102.136719 301.851562 C 103.847656 296.90625 105.675781 292.007812 107.625 287.152344 C 109.578125 282.296875 111.644531 277.492188 113.832031 272.738281 C 116.015625 267.984375 118.316406 263.289062 120.734375 258.648438 C 123.152344 254.007812 125.679688 249.429688 128.320312 244.914062 C 130.960938 240.398438 133.710938 235.949219 136.574219 231.566406 C 139.433594 227.1875 142.398438 222.878906 145.46875 218.640625 C 148.539062 214.40625 151.714844 210.25 154.988281 206.167969 C 158.265625 202.089844 161.636719 198.09375 165.109375 194.175781 C 168.582031 190.261719 172.148438 186.4375 175.804688 182.699219 C 179.464844 178.957031 183.214844 175.3125 187.054688 171.757812 C 190.890625 168.203125 194.816406 164.742188 198.824219 161.378906 C 202.832031 158.019531 206.921875 154.757812 211.089844 151.59375 C 215.257812 148.433594 219.5 145.375 223.820312 142.421875 C 228.140625 139.46875 232.527344 136.621094 236.984375 133.886719 C 241.445312 131.148438 245.96875 128.519531 250.554688 126.003906 C 255.140625 123.488281 259.789062 121.085938 264.492188 118.800781 C 269.199219 116.511719 273.957031 114.339844 278.769531 112.285156 C 283.582031 110.234375 288.441406 108.296875 293.347656 106.484375 C 298.253906 104.667969 303.203125 102.972656 308.191406 101.402344 C 313.183594 99.828125 318.207031 98.378906 323.269531 97.054688 C 328.332031 95.726562 333.421875 94.527344 338.542969 93.449219 C 343.660156 92.375 348.804688 91.425781 353.972656 90.601562 C 359.136719 89.777344 364.324219 89.082031 369.523438 88.515625 C 374.722656 87.945312 379.9375 87.503906 385.160156 87.191406 C 390.382812 86.878906 395.609375 86.695312 400.839844 86.636719 C 406.070312 86.582031 411.300781 86.652344 416.527344 86.855469 C 421.757812 87.054688 426.976562 87.382812 432.1875 87.839844 C 437.402344 88.296875 442.597656 88.882812 447.78125 89.59375 C 452.964844 90.304688 458.128906 91.144531 463.269531 92.109375 C 468.414062 93.074219 473.527344 94.167969 478.617188 95.382812 C 483.703125 96.597656 488.761719 97.941406 493.78125 99.40625 C 498.804688 100.871094 503.789062 102.457031 508.734375 104.167969 C 513.679688 105.875 518.578125 107.707031 523.433594 109.65625 C 528.289062 111.605469 533.09375 113.671875 537.847656 115.859375 C 542.597656 118.046875 547.296875 120.347656 551.9375 122.761719 C 556.578125 125.179688 561.15625 127.707031 565.671875 130.351562 C 566.496094 130.832031 567.359375 131.230469 568.257812 131.539062 C 569.160156 131.851562 570.085938 132.074219 571.03125 132.203125 C 571.976562 132.332031 572.925781 132.371094 573.875 132.3125 C 574.828125 132.253906 575.765625 132.105469 576.691406 131.863281 C 577.613281 131.621094 578.503906 131.292969 579.363281 130.875 C 580.21875 130.457031 581.027344 129.960938 581.789062 129.382812 C 582.550781 128.808594 583.246094 128.164062 583.878906 127.449219 C 584.511719 126.734375 585.070312 125.964844 585.550781 125.144531 C 586.03125 124.320312 586.429688 123.457031 586.742188 122.554688 C 587.054688 121.652344 587.273438 120.730469 587.402344 119.785156 C 587.535156 118.839844 587.570312 117.890625 587.511719 116.9375 C 587.457031 115.984375 587.304688 115.046875 587.066406 114.125 C 586.824219 113.203125 586.492188 112.3125 586.074219 111.453125 C 585.660156 110.59375 585.160156 109.785156 584.585938 109.027344 C 584.007812 108.265625 583.363281 107.570312 582.648438 106.9375 C 581.9375 106.300781 581.167969 105.746094 580.34375 105.261719 C 575.414062 102.386719 570.417969 99.636719 565.355469 97.003906 C 560.292969 94.375 555.167969 91.871094 549.980469 89.492188 C 544.796875 87.113281 539.554688 84.863281 534.257812 82.738281 C 528.960938 80.617188 523.617188 78.625 518.222656 76.765625 C 512.828125 74.90625 507.390625 73.179688 501.910156 71.585938 C 496.433594 69.992188 490.917969 68.535156 485.367188 67.210938 C 479.816406 65.886719 474.238281 64.703125 468.628906 63.652344 C 463.019531 62.601562 457.390625 61.691406 451.738281 60.917969 C 446.082031 60.144531 440.414062 59.511719 434.730469 59.015625 C 429.046875 58.519531 423.351562 58.164062 417.652344 57.945312 C 411.949219 57.730469 406.246094 57.652344 400.539062 57.71875 C 394.835938 57.78125 389.132812 57.984375 383.4375 58.328125 C 377.742188 58.667969 372.058594 59.152344 366.386719 59.773438 C 360.714844 60.394531 355.0625 61.15625 349.429688 62.054688 C 343.792969 62.953125 338.183594 63.988281 332.601562 65.160156 C 327.015625 66.335938 321.464844 67.644531 315.945312 69.089844 C 310.425781 70.535156 304.945312 72.117188 299.503906 73.832031 C 294.058594 75.546875 288.664062 77.394531 283.3125 79.371094 C 277.960938 81.351562 272.660156 83.460938 267.410156 85.699219 C 262.164062 87.9375 256.972656 90.304688 251.839844 92.796875 C 246.710938 95.292969 241.640625 97.910156 236.636719 100.652344 C 231.632812 103.394531 226.699219 106.257812 221.835938 109.238281 C 216.972656 112.222656 212.183594 115.324219 207.472656 118.542969 C 202.761719 121.761719 198.132812 125.09375 193.585938 128.539062 C 189.035156 131.984375 184.574219 135.539062 180.203125 139.207031 C 175.828125 142.871094 171.546875 146.640625 167.359375 150.511719 C 163.167969 154.386719 159.078125 158.363281 155.082031 162.4375 C 151.089844 166.511719 147.199219 170.683594 143.40625 174.949219 C 139.617188 179.214844 135.9375 183.570312 132.359375 188.015625 C 128.785156 192.460938 125.320312 196.992188 121.964844 201.609375 C 118.609375 206.226562 115.371094 210.921875 112.25 215.695312 C 109.125 220.46875 106.121094 225.320312 103.234375 230.242188 Z M 103.234375 230.242188 "/>
</g>
</g>
</g>
<g clip-path="url(#clip5)" clip-rule="nonzero">
<g clip-path="url(#clip6)" clip-rule="nonzero">
<g clip-path="url(#clip7)" clip-rule="nonzero">
<path style=" stroke:none;fill-rule:nonzero;fill:rgb(0%,0%,0%);fill-opacity:1;" d="M 648.269531 161.824219 L 589.578125 262.171875 C 589.097656 262.996094 588.703125 263.859375 588.390625 264.757812 C 588.078125 265.660156 587.855469 266.585938 587.726562 267.53125 C 587.597656 268.476562 587.5625 269.425781 587.617188 270.375 C 587.675781 271.328125 587.824219 272.265625 588.066406 273.191406 C 588.308594 274.113281 588.636719 275.003906 589.054688 275.859375 C 589.472656 276.71875 589.96875 277.527344 590.546875 278.289062 C 591.121094 279.050781 591.765625 279.746094 592.480469 280.378906 C 593.195312 281.011719 593.964844 281.570312 594.789062 282.050781 C 595.609375 282.53125 596.472656 282.929688 597.375 283.242188 C 598.277344 283.554688 599.199219 283.773438 600.144531 283.902344 C 601.089844 284.035156 602.039062 284.070312 602.992188 284.011719 C 603.945312 283.957031 604.882812 283.804688 605.804688 283.5625 C 606.726562 283.324219 607.617188 282.992188 608.476562 282.574219 C 609.335938 282.160156 610.144531 281.660156 610.90625 281.085938 C 611.664062 280.507812 612.363281 279.863281 612.996094 279.148438 C 613.628906 278.4375 614.183594 277.667969 614.667969 276.84375 L 666.019531 189.039062 L 752.769531 239.777344 C 753.59375 240.257812 754.457031 240.652344 755.359375 240.964844 C 756.261719 241.277344 757.183594 241.5 758.128906 241.628906 C 759.074219 241.757812 760.023438 241.792969 760.976562 241.738281 C 761.929688 241.679688 762.867188 241.53125 763.789062 241.289062 C 764.710938 241.046875 765.601562 240.71875 766.460938 240.300781 C 767.316406 239.882812 768.128906 239.386719 768.886719 238.808594 C 769.648438 238.234375 770.34375 237.589844 770.976562 236.875 C 771.609375 236.160156 772.167969 235.390625 772.648438 234.566406 C 773.132812 233.746094 773.527344 232.882812 773.839844 231.980469 C 774.152344 231.078125 774.371094 230.15625 774.503906 229.210938 C 774.632812 228.265625 774.667969 227.316406 774.613281 226.363281 C 774.554688 225.410156 774.40625 224.472656 774.164062 223.550781 C 773.921875 222.625 773.59375 221.734375 773.175781 220.878906 C 772.757812 220.019531 772.261719 219.210938 771.683594 218.449219 C 771.109375 217.691406 770.460938 216.992188 769.75 216.359375 C 769.035156 215.726562 768.265625 215.171875 767.441406 214.6875 L 668.148438 156.617188 C 667.324219 156.132812 666.460938 155.738281 665.558594 155.425781 C 664.660156 155.113281 663.734375 154.894531 662.789062 154.761719 C 661.84375 154.632812 660.894531 154.597656 659.941406 154.65625 C 658.992188 154.710938 658.054688 154.859375 657.128906 155.101562 C 656.207031 155.34375 655.316406 155.675781 654.457031 156.089844 C 653.601562 156.507812 652.789062 157.003906 652.03125 157.582031 C 651.269531 158.160156 650.574219 158.804688 649.941406 159.515625 C 649.308594 160.230469 648.75 161 648.269531 161.824219 Z M 648.269531 161.824219 "/>
</g>
</g>
</g>
</g>
</svg>
